<?xml version="1.0" encoding="utf-8"?>
<svg xmlns="http://www.w3.org/2000/svg" viewBox="0 0 512 512" xmlns:bx="https://boxy-svg.com" width="512px" height="512px"><defs><linearGradient gradientUnits="userSpaceOnUse" x1="256" y1="130" x2="256" y2="253" id="gradient-0" spreadMethod="reflect"><stop offset="0" style="stop-color: rgb(100% 38.824% 0%)"/><stop offset="1" style="stop-color: rgb(67.87% 9.5598% 0%)"/></linearGradient><bx:export><bx:file format="svg"/></bx:export></defs><rect width="512" height="512" style="stroke: rgb(0, 0, 0); fill: rgb(75, 85, 99);"/><rect x="100" y="100" width="312" height="312" rx="5" ry="5" style="stroke: rgb(0, 0, 0); transform-origin: 0px 0px;"/><rect x="115" y="115" width="282" height="282" style="stroke: rgb(0, 0, 0); fill: rgb(255, 255, 255);"/><rect x="130" y="130" width="252" height="123" style="stroke: rgb(84, 128, 82); fill-opacity: 0.35; fill: url(&quot;#gradient-0&quot;); stroke-opacity: 0;"/><rect x="133" y="133" width="246" height="117" style="stroke-miterlimit: 5.03; stroke-opacity: 0; stroke: rgb(186, 218, 85); stroke-width: 0px; paint-order: fill; fill-rule: nonzero; fill: rgb(255, 92, 0);"/><rect x="130" y="259" width="252" height="123" style="stroke: rgb(82, 102, 128); stroke-opacity: 0; fill: rgb(0, 170, 255); fill-opacity: 0.35;"/><rect x="133" y="262" width="246" height="117" style="stroke: rgb(84, 128, 82); stroke-opacity: 0; fill: rgb(0, 149, 255);"/><path d="M 197 179 L 261 250.023 L 133 250.023 L 197 179 Z" bx:shape="triangle 133 179 128 71.023 0.5 0 1@1f206c3b" style="stroke: rgb(0, 0, 0); fill: rgb(176, 63, 0); stroke-opacity: 0; fill-opacity: 0.67;"/><ellipse style="stroke-opacity: 0; stroke: rgb(0, 0, 0); fill: rgb(255, 213, 0);" cx="288.708" cy="183.31" rx="22.372" ry="22.372"/><path d="M 259 163 L 332 250 L 186 250 L 259 163 Z" bx:shape="triangle 186 163 146 87 0.5 0 1@60bbe689" style="stroke: rgb(0, 0, 0); fill: rgb(176, 63, 0); stroke-opacity: 0;"/><rect x="133" y="301" width="246" height="78" style="stroke: rgb(84, 128, 82); stroke-opacity: 0; fill: rgb(0, 205, 255); fill-opacity: 0.66;"/><path d="M 214.611 270.955 L 261.687 344.461 L 167.534 344.461 L 214.611 270.955 Z" bx:shape="triangle 167.534 270.955 94.153 73.506 0.5 0 1@7ef6d99e" style="stroke: rgb(0, 0, 0); stroke-opacity: 0; fill: rgb(255, 255, 255);"/><path d="M 301.615 284.698 L 322.641 318.067 L 280.589 318.067 L 301.615 284.698 Z" bx:shape="triangle 280.589 284.698 42.052 33.369 0.5 0 1@175b87fb" style="stroke: rgb(0, 0, 0); stroke-opacity: 0; fill: rgb(255, 255, 255); stroke-width: 1;"/><path d="M 230.024 280.838 L 257.418 337.749 L 202.63 337.749 L 230.024 280.838 Z" bx:shape="triangle 202.63 280.838 54.788 56.911 0.5 0 1@40954ee1" style="stroke: rgb(0, 0, 0); stroke-opacity: 0; fill: rgb(255, 255, 255); stroke-width: 1;"/><path d="M 190.659 286.049 L 213.807 344.504 L 167.51 344.504 L 190.659 286.049 Z" bx:shape="triangle 167.51 286.049 46.297 58.455 0.5 0 1@f6b13aa2" style="stroke: rgb(0, 0, 0); stroke-opacity: 0; stroke-width: 1; fill: rgb(216, 232, 247);"/><path d="M 230.023 283.347 L 243.524 310.541 L 216.523 310.541 L 230.023 283.347 Z" bx:shape="triangle 216.523 283.347 27.001 27.194 0.5 0 1@a439bba1" style="stroke: rgb(0, 0, 0); stroke-opacity: 0; stroke-width: 1; fill: rgb(216, 232, 247);"/><path d="M 312.036 294.346 L 323.8 318.067 L 300.272 318.067 L 312.036 294.346 Z" bx:shape="triangle 300.272 294.346 23.528 23.721 0.5 0 1@bd378788" style="stroke: rgb(0, 0, 0); stroke-opacity: 0; stroke-width: 1; fill: rgb(216, 232, 247);"/><path d="M 170.693 278.291 Q 171.244 277.946 171.795 278.291 L 184.474 286.215 Q 185.026 286.559 184.815 287.117 L 179.972 299.938 Q 179.762 300.495 179.08 300.495 L 163.408 300.495 Q 162.726 300.495 162.516 299.938 L 157.673 287.117 Q 157.462 286.559 158.014 286.215 Z" bx:shape="n-gon 171.244 290.411 14.491 12.465 5 0.04 1@0d6c6687" style="stroke: rgb(0, 0, 0); stroke-opacity: 0; fill: rgb(216, 232, 247); transform-box: fill-box; transform-origin: 50% 50%;" transform="matrix(-0.838671, 0.544639, -0.544639, -0.838671, 59.025742, 25.683939)"/></svg>