<?xml version="1.0" encoding="utf-8"?>
<svg xmlns="http://www.w3.org/2000/svg" viewBox="0 0 512 512" xmlns:bx="https://boxy-svg.com" width="512px" height="512px"><defs><linearGradient gradientUnits="userSpaceOnUse" x1="256" y1="130" x2="256" y2="253" id="gradient-0" spreadMethod="reflect" gradientTransform="matrix(0.935898, 0, 0, 0.935898, 16.409927, 16.410342)"><stop offset="0" style="stop-color: rgb(100% 38.824% 0%)"/><stop offset="1" style="stop-color: rgb(67.87% 9.5598% 0%)"/></linearGradient><bx:export><bx:file format="svg"/></bx:export></defs><rect x="110" y="110" width="292" height="292" rx="5" ry="5" style="stroke: rgb(0, 0, 0); stroke-width: 1;"/><rect x="124.038" y="124.038" width="263.923" height="263.923" style="stroke: rgb(0, 0, 0); fill: rgb(255, 255, 255); stroke-width: 1;"/><rect x="138.077" y="138.077" width="235.846" height="115.115" style="stroke: rgb(84, 128, 82); fill-opacity: 0.35; fill: url(&quot;#gradient-0&quot;); stroke-opacity: 0; stroke-width: 1;"/><rect x="140.885" y="140.885" width="230.231" height="109.5" style="stroke-miterlimit: 5.03; stroke-opacity: 0; stroke: rgb(186, 218, 85); stroke-width: 0px; paint-order: fill; fill-rule: nonzero; fill: rgb(255, 92, 0);"/><rect x="138.077" y="258.808" width="235.846" height="115.115" style="stroke: rgb(82, 102, 128); stroke-opacity: 0; fill: rgb(0, 170, 255); fill-opacity: 0.35; stroke-width: 1;"/><rect x="140.885" y="261.615" width="230.231" height="109.5" style="stroke: rgb(84, 128, 82); stroke-opacity: 0; fill: rgb(0, 149, 255); stroke-width: 1;"/><path d="M 200.783 183.936 L 260.68 250.406 L 140.885 250.406 L 200.783 183.936 Z" bx:shape="triangle 140.885 183.936 119.795 66.47 0.5 0 1@b84fb122" style="stroke: rgb(0, 0, 0); fill: rgb(176, 63, 0); stroke-opacity: 0; fill-opacity: 0.67; stroke-width: 1;"/><ellipse style="stroke-opacity: 0; stroke: rgb(0, 0, 0); fill: rgb(255, 213, 0); stroke-width: 1;" cx="286.611" cy="187.97" rx="20.938" ry="20.938"/><path d="M 258.808 168.962 L 327.128 250.385 L 190.487 250.385 L 258.808 168.962 Z" bx:shape="triangle 190.487 168.962 136.641 81.423 0.5 0 1@e2417fc7" style="stroke: rgb(0, 0, 0); fill: rgb(176, 63, 0); stroke-opacity: 0; stroke-width: 1;"/><rect x="140.885" y="298.115" width="230.231" height="73" style="stroke: rgb(84, 128, 82); stroke-opacity: 0; fill: rgb(0, 205, 255); fill-opacity: 0.66; stroke-width: 1;"/><path d="M 217.264 269.996 L 261.323 338.79 L 173.205 338.79 L 217.264 269.996 Z" bx:shape="triangle 173.205 269.996 88.118 68.794 0.5 0 1@f83d19cb" style="stroke: rgb(0, 0, 0); stroke-opacity: 0; fill: rgb(255, 255, 255); stroke-width: 1;"/><path d="M 298.691 282.858 L 318.369 314.088 L 279.013 314.088 L 298.691 282.858 Z" bx:shape="triangle 279.013 282.858 39.356 31.23 0.5 0 1@a76ece5f" style="stroke: rgb(0, 0, 0); stroke-opacity: 0; fill: rgb(255, 255, 255); stroke-width: 1;"/><path d="M 231.689 279.246 L 257.327 332.509 L 206.051 332.509 L 231.689 279.246 Z" bx:shape="triangle 206.051 279.246 51.276 53.263 0.5 0 1@03e0a717" style="stroke: rgb(0, 0, 0); stroke-opacity: 0; fill: rgb(255, 255, 255); stroke-width: 1;"/><path d="M 194.847 284.123 L 216.511 338.831 L 173.182 338.831 L 194.847 284.123 Z" bx:shape="triangle 173.182 284.123 43.329 54.708 0.5 0 1@223ec746" style="stroke: rgb(0, 0, 0); stroke-opacity: 0; stroke-width: 1; fill: rgb(216, 232, 247);"/><path d="M 231.689 281.594 L 244.324 307.045 L 219.054 307.045 L 231.689 281.594 Z" bx:shape="triangle 219.054 281.594 25.27 25.451 0.5 0 1@bd202540" style="stroke: rgb(0, 0, 0); stroke-opacity: 0; stroke-width: 1; fill: rgb(216, 232, 247);"/><path d="M 308.444 291.888 L 319.454 314.088 L 297.434 314.088 L 308.444 291.888 Z" bx:shape="triangle 297.434 291.888 22.02 22.2 0.5 0 1@df996a35" style="stroke: rgb(0, 0, 0); stroke-opacity: 0; stroke-width: 1; fill: rgb(216, 232, 247);"/><path d="M 170.728 279.067 Q 171.244 278.745 171.76 279.067 L 183.626 286.484 Q 184.142 286.806 183.945 287.328 L 179.413 299.327 Q 179.216 299.849 178.578 299.849 L 163.91 299.849 Q 163.272 299.849 163.075 299.327 L 158.543 287.328 Q 158.346 286.806 158.862 286.484 Z" bx:shape="n-gon 171.244 290.411 13.562 11.666 5 0.04 1@e0ffd944" style="stroke: rgb(0, 0, 0); stroke-opacity: 0; fill: rgb(216, 232, 247); stroke-width: 1; transform-box: fill-box; transform-origin: 50% 50%;" transform="matrix(-0.83867, 0.544639, -0.544639, -0.83867, 60.628383, 22.997339)"/></svg>