<?xml version="1.0" encoding="utf-8"?>
<svg xmlns="http://www.w3.org/2000/svg" viewBox="0 0 512 512" xmlns:bx="https://boxy-svg.com">
  <defs>
    <linearGradient gradientUnits="userSpaceOnUse" x1="256" y1="130" x2="256" y2="253" id="gradient-0" spreadMethod="reflect" gradientTransform="matrix(1.641025, 0, 0, 1.641025, -164.102219, -164.102225)">
      <stop offset="0" style="stop-color: rgb(100% 38.824% 0%)"/>
      <stop offset="1" style="stop-color: rgb(67.87% 9.5598% 0%)"/>
    </linearGradient>
    <bx:export>
      <bx:file format="svg"/>
    </bx:export>
  </defs>
  <rect width="512" height="512" rx="0" ry="0" style="stroke: rgb(0, 0, 0);"/>
  <rect x="24.615" width="462.769" height="462.769" style="stroke: rgb(0, 0, 0); fill: rgb(255, 255, 255);" y="24.615"/>
  <rect x="49.23" y="49.23" width="413.538" height="201.846" style="stroke: rgb(84, 128, 82); fill-opacity: 0.35; fill: url(&quot;#gradient-0&quot;); stroke-opacity: 0;"/>
  <rect x="54.154" y="54.154" width="403.692" height="192" style="stroke-miterlimit: 5.03; stroke-opacity: 0; stroke: rgb(186, 218, 85); stroke-width: 0px; paint-order: fill; fill-rule: nonzero; fill: rgb(255, 92, 0);"/>
  <rect x="49.23" y="260.923" width="413.538" height="201.846" style="stroke: rgb(82, 102, 128); stroke-opacity: 0; fill: rgb(0, 170, 255); fill-opacity: 0.35;"/>
  <rect x="54.154" y="265.846" width="403.692" height="192" style="stroke: rgb(84, 128, 82); stroke-opacity: 0; fill: rgb(0, 149, 255);"/>
  <path d="M 159.18 129.641 L 264.205 246.192 L 54.154 246.192 L 159.18 129.641 Z" bx:shape="triangle 54.154 129.641 210.051 116.551 0.5 0 1@a9454bdd" style="stroke: rgb(0, 0, 0); fill: rgb(176, 63, 0); stroke-opacity: 0; fill-opacity: 0.67;"/>
  <ellipse style="stroke-opacity: 0; stroke: rgb(0, 0, 0); fill: rgb(255, 213, 0);" cx="309.674" cy="136.714" rx="36.713" ry="36.713"/>
  <path d="M 260.923 103.385 L 380.718 246.154 L 141.128 246.154 L 260.923 103.385 Z" bx:shape="triangle 141.128 103.385 239.59 142.769 0.5 0 1@202cbb1f" style="stroke: rgb(0, 0, 0); fill: rgb(176, 63, 0); stroke-opacity: 0;"/>
  <rect x="54.154" y="329.845" width="403.692" height="128" style="stroke: rgb(84, 128, 82); stroke-opacity: 0; fill: rgb(0, 205, 255); fill-opacity: 0.66;"/>
  <path d="M 188.079 280.541 L 265.332 401.167 L 110.825 401.167 L 188.079 280.541 Z" bx:shape="triangle 110.825 280.541 154.507 120.626 0.5 0 1@9a7d7531" style="stroke: rgb(0, 0, 0); stroke-opacity: 0; fill: rgb(255, 255, 255);"/>
  <path d="M 330.855 303.094 L 365.359 357.854 L 296.351 357.854 L 330.855 303.094 Z" bx:shape="triangle 296.351 303.094 69.008 54.76 0.5 0 1@cbbfb64e" style="stroke: rgb(0, 0, 0); stroke-opacity: 0; fill: rgb(255, 255, 255); stroke-width: 1;"/>
  <path d="M 213.373 296.759 L 258.327 390.151 L 168.418 390.151 L 213.373 296.759 Z" bx:shape="triangle 168.418 296.759 89.909 93.392 0.5 0 1@0ac634ad" style="stroke: rgb(0, 0, 0); stroke-opacity: 0; fill: rgb(255, 255, 255); stroke-width: 1;"/>
  <path d="M 148.772 305.311 L 186.759 401.237 L 110.785 401.237 L 148.772 305.311 Z" bx:shape="triangle 110.785 305.311 75.974 95.926 0.5 0 1@b7a1e9d9" style="stroke: rgb(0, 0, 0); stroke-opacity: 0; stroke-width: 1; fill: rgb(216, 232, 247);"/>
  <path d="M 213.372 300.877 L 235.526 345.503 L 191.217 345.503 L 213.372 300.877 Z" bx:shape="triangle 191.217 300.877 44.309 44.626 0.5 0 1@77c7032d" style="stroke: rgb(0, 0, 0); stroke-opacity: 0; stroke-width: 1; fill: rgb(216, 232, 247);"/>
  <path d="M 347.956 318.927 L 367.261 357.854 L 328.651 357.854 L 347.956 318.927 Z" bx:shape="triangle 328.651 318.927 38.61 38.927 0.5 0 1@bae06c31" style="stroke: rgb(0, 0, 0); stroke-opacity: 0; stroke-width: 1; fill: rgb(216, 232, 247);"/>
  <path d="M 170.339 270.52 Q 171.244 269.955 172.149 270.52 L 192.955 283.524 Q 193.86 284.09 193.515 285.005 L 185.567 306.045 Q 185.222 306.96 184.103 306.96 L 158.385 306.96 Q 157.266 306.96 156.921 306.045 L 148.973 285.005 Q 148.628 284.09 149.533 283.524 Z" bx:shape="n-gon 171.244 290.411 23.78 20.456 5 0.04 1@252d5e08" style="stroke: rgb(0, 0, 0); stroke-opacity: 0; fill: rgb(216, 232, 247); transform-origin: 158.295px 700.763px;" transform="matrix(-0.838671, 0.544639, -0.544639, -0.83867, -158.076698, -700.529657)"/>
</svg>